<svg width="18" height="18" viewBox="0 0 18 18" fill="none" xmlns="http://www.w3.org/2000/svg">
<circle cx="9" cy="9" r="9" fill="white"/>
<path fill-rule="evenodd" clip-rule="evenodd" d="M12.5453 8.24029C12.9559 7.85786 12.9559 7.2378 12.5453 6.85537C12.1347 6.47293 11.4689 6.47293 11.0583 6.85537L8.537 9.20367L7.64843 8.37607C7.23782 7.99363 6.57208 7.99363 6.16147 8.37607C5.75086 8.75851 5.75086 9.37856 6.16147 9.76099L7.76145 11.2512C7.77163 11.2615 7.7821 11.2717 7.79285 11.2817C7.99752 11.4723 8.26559 11.5679 8.53385 11.5685C8.80421 11.5694 9.07488 11.4738 9.28116 11.2817C9.29192 11.2717 9.30239 11.2615 9.31259 11.2511L12.5453 8.24029Z" fill="#43DD9C"/>
</svg>
