<svg width="22" height="22" viewBox="0 0 22 22" fill="none" xmlns="http://www.w3.org/2000/svg">
<path d="M17.4167 21.0833H4.58333C4.07707 21.0833 3.66667 20.6729 3.66667 20.1667V1.83333C3.66667 1.32707 4.07707 0.916667 4.58333 0.916667H13.603C13.8275 0.916667 14.0442 0.999056 14.212 1.14821L14.8085 0.477065L14.212 1.14821L18.0257 4.53816C18.2214 4.71212 18.3333 4.96145 18.3333 5.22329V20.1667C18.3333 20.6729 17.9229 21.0833 17.4167 21.0833Z" stroke="#96AECD" stroke-width="1.83333"/>
<rect y="6.41669" width="22" height="11.9167" rx="1.83333" fill="#96AECD"/>
<path d="M7.89795 14.2376H5.96033L5.62195 15.3333H4.11133L6.26245 9.46808H7.5918L9.75903 15.3333H8.24036L7.89795 14.2376ZM6.29871 13.1459H7.55957L6.92712 11.1116L6.29871 13.1459Z" fill="white"/>
<path d="M12.1519 13.7381L13.3201 9.46808H14.8992L12.9253 15.3333H11.3784L9.42065 9.46808H10.9877L12.1519 13.7381Z" fill="white"/>
<path d="M16.8368 15.3333H15.4269V9.46808H16.8368V15.3333Z" fill="white"/>
</svg>
