<svg width="22" height="22" viewBox="0 0 22 22" fill="none" xmlns="http://www.w3.org/2000/svg">
<path d="M17.4167 21.0833H4.58333C4.07707 21.0833 3.66667 20.6729 3.66667 20.1667V1.83333C3.66667 1.32707 4.07707 0.916667 4.58333 0.916667H13.603C13.8275 0.916667 14.0442 0.999056 14.212 1.14821L14.8085 0.477065L14.212 1.14821L18.0257 4.53816C18.2214 4.71212 18.3333 4.96145 18.3333 5.22329V20.1667C18.3333 20.6729 17.9229 21.0833 17.4167 21.0833Z" stroke="#96AECD" stroke-width="1.83333"/>
<rect y="6.41669" width="22" height="11.9167" rx="1.83333" fill="#96AECD"/>
<path d="M3.22131 15.3333V9.46808H5.1106C5.62891 9.46808 6.09485 9.58624 6.50842 9.82257C6.922 10.0562 7.24426 10.3879 7.47522 10.8176C7.70886 11.2446 7.82703 11.7239 7.82971 12.2557V12.5256C7.82971 13.0627 7.71558 13.5447 7.4873 13.9717C7.26172 14.3961 6.94214 14.7291 6.52856 14.9708C6.11768 15.2098 5.65845 15.3306 5.15088 15.3333H3.22131ZM4.63525 10.5598V14.2457H5.12671C5.53223 14.2457 5.84375 14.102 6.06128 13.8146C6.27881 13.5246 6.38757 13.0949 6.38757 12.5256V12.2718C6.38757 11.7051 6.27881 11.2781 6.06128 10.9908C5.84375 10.7034 5.52686 10.5598 5.1106 10.5598H4.63525Z" fill="white"/>
<path d="M13.5217 12.5215C13.5217 13.0936 13.4156 13.5998 13.2035 14.0402C12.9913 14.4807 12.6892 14.8204 12.2971 15.0594C11.9077 15.2957 11.4633 15.4139 10.9637 15.4139C10.4642 15.4139 10.0211 15.2997 9.6344 15.0715C9.24768 14.8405 8.94556 14.5115 8.72803 14.0845C8.51318 13.6575 8.40039 13.1674 8.38965 12.6142V12.2839C8.38965 11.7092 8.49438 11.2029 8.70386 10.7652C8.91602 10.3248 9.21814 9.98505 9.61023 9.74603C10.005 9.50702 10.4535 9.38751 10.9557 9.38751C11.4525 9.38751 11.8956 9.50568 12.285 9.742C12.6744 9.97833 12.9766 10.3154 13.1914 10.7531C13.4089 11.1882 13.519 11.6877 13.5217 12.2516V12.5215ZM12.0836 12.2758C12.0836 11.6931 11.9856 11.2513 11.7896 10.9505C11.5962 10.647 11.3182 10.4953 10.9557 10.4953C10.2467 10.4953 9.87207 11.027 9.83179 12.0905L9.82776 12.5215C9.82776 13.0963 9.9231 13.538 10.1138 13.8469C10.3044 14.1557 10.5878 14.3101 10.9637 14.3101C11.3209 14.3101 11.5962 14.1584 11.7896 13.8549C11.9829 13.5515 12.0809 13.1151 12.0836 12.5457V12.2758Z" fill="white"/>
<path d="M18.9962 13.3474C18.9774 13.7556 18.8673 14.1168 18.6659 14.431C18.4645 14.7425 18.1812 14.9842 17.8159 15.1561C17.4534 15.3279 17.0385 15.4139 16.5712 15.4139C15.8004 15.4139 15.1935 15.1628 14.7504 14.6606C14.3073 14.1584 14.0857 13.4494 14.0857 12.5336V12.2436C14.0857 11.6689 14.1851 11.1667 14.3838 10.737C14.5852 10.3046 14.8739 9.97162 15.2499 9.73798C15.6259 9.50165 16.0609 9.38348 16.5551 9.38348C17.2667 9.38348 17.8387 9.57147 18.2711 9.94745C18.7035 10.3207 18.9492 10.8364 19.0083 11.4943H17.5984C17.5876 11.1371 17.4977 10.8807 17.3285 10.7249C17.1593 10.5692 16.9015 10.4913 16.5551 10.4913C16.2032 10.4913 15.9454 10.6229 15.7816 10.886C15.6178 11.1492 15.5319 11.5695 15.5238 12.1469V12.5618C15.5238 13.1876 15.6017 13.6347 15.7574 13.9033C15.9159 14.1718 16.1871 14.3061 16.5712 14.3061C16.8961 14.3061 17.1445 14.2296 17.3164 14.0765C17.4883 13.9234 17.5796 13.6804 17.5903 13.3474H18.9962Z" fill="white"/>
</svg>
