<svg width="18" height="18" viewBox="0 0 18 18" fill="none" xmlns="http://www.w3.org/2000/svg">
<circle cx="9" cy="9" r="9" fill="#107EFF"/>
<path fill-rule="evenodd" clip-rule="evenodd" d="M10.1148 3.50001C10.565 3.4987 11.0101 3.59327 11.424 3.77718C11.8379 3.96103 12.2114 4.23002 12.5241 4.56673C12.8367 4.90336 13.0827 5.30122 13.2495 5.73658C13.4163 6.1719 13.5012 6.6373 13.5 7.10631C13.4988 7.57532 13.4115 8.04023 13.2424 8.47461C13.0734 8.90891 12.8254 9.30527 12.5111 9.64004C12.511 9.64012 12.5112 9.63996 12.5111 9.64004L8.69727 13.7124C8.69704 13.7126 8.6968 13.7129 8.69657 13.7131C8.46726 13.9598 8.19308 14.1577 7.88861 14.2935C7.58372 14.4294 7.25549 14.5 6.92301 14.5C6.55269 14.5 6.24469 14.3808 5.98766 14.2661C5.67071 14.1248 5.35973 13.8782 5.14061 13.6422C5.04617 13.5406 4.95767 13.4415 4.87988 13.3234C4.79953 13.2014 4.74189 13.0768 4.68491 12.9286C4.56258 12.6107 4.5 12.271 4.5 11.9287C4.5 11.5865 4.56258 11.2468 4.68491 10.9288C4.80725 10.6108 4.98743 10.3196 5.21682 10.0726L5.21872 10.0706L8.62063 6.44873C8.62071 6.44864 8.62056 6.44881 8.62063 6.44873C8.91904 6.13038 9.33081 5.94443 9.76783 5.94546C9.93198 5.94584 10.117 5.95692 10.3039 6.03331C10.4954 6.11155 10.6386 6.2371 10.765 6.3731C10.8941 6.51209 11.0044 6.662 11.0687 6.85675C11.1288 7.03879 11.1342 7.22046 11.1346 7.38173C11.1354 7.81752 10.9763 8.2426 10.6818 8.56245L10.6785 8.56612L7.62837 11.8132C7.43931 12.0145 7.12288 12.0244 6.9216 11.8353C6.72033 11.6463 6.71043 11.3298 6.89949 11.1286L9.94761 7.88354C10.0641 7.75612 10.135 7.57707 10.1346 7.38376C10.1342 7.23007 10.1251 7.18842 10.1191 7.17018C10.1191 7.17002 10.1192 7.17038 10.1191 7.17018C10.117 7.16356 10.1078 7.13493 10.0323 7.05364C9.9921 7.01041 9.96569 6.98691 9.94862 6.97376C9.93377 6.96232 9.92719 6.95964 9.9257 6.95903C9.9213 6.95724 9.89322 6.94576 9.76547 6.94545C9.61755 6.94511 9.46745 7.0075 9.35037 7.13246L5.94863 10.7541C5.80866 10.9051 5.69583 11.0862 5.61822 11.2879C5.54043 11.4901 5.5 11.708 5.5 11.9287C5.5 12.1495 5.54043 12.3674 5.61822 12.5696C5.66129 12.6815 5.68891 12.7338 5.71502 12.7734C5.74369 12.8169 5.78286 12.8643 5.87331 12.9617C6.02396 13.1239 6.22878 13.2787 6.39497 13.3528C6.62108 13.4537 6.77039 13.5 6.92301 13.5C7.11348 13.5 7.30307 13.4597 7.48131 13.3802C7.65967 13.3006 7.82424 13.1829 7.96456 13.0318L7.96597 13.0303L11.7815 8.95622C12.006 8.71715 12.1867 8.43017 12.3106 8.11188C12.4345 7.79356 12.4991 7.45084 12.5 7.10374C12.5009 6.75663 12.438 6.41351 12.3157 6.0944C12.1935 5.77533 12.0147 5.48772 11.7913 5.24725C11.5681 5.00685 11.3049 4.8185 11.018 4.69105C10.7313 4.56365 10.4254 4.49911 10.1177 4.50001C9.80994 4.50091 9.50437 4.56724 9.21821 4.69634C8.93192 4.82549 8.66965 5.01542 8.44754 5.25718L8.4438 5.26125L5.81721 8.05748C5.62815 8.25875 5.31172 8.26866 5.11045 8.0796C4.90918 7.89054 4.89928 7.57411 5.08834 7.37283L7.71308 4.57853C8.02365 4.24104 8.39501 3.97066 8.80699 3.7848C9.21994 3.5985 9.6645 3.50133 10.1148 3.50001Z" fill="white"/>
</svg>
