<svg width="22" height="22" viewBox="0 0 22 22" fill="none" xmlns="http://www.w3.org/2000/svg">
<path d="M17.4167 21.0833H4.58333C4.07707 21.0833 3.66667 20.6729 3.66667 20.1667V1.83333C3.66667 1.32707 4.07707 0.916667 4.58333 0.916667H13.603C13.8275 0.916667 14.0442 0.999056 14.212 1.14821L14.8085 0.477065L14.212 1.14821L18.0257 4.53816C18.2214 4.71212 18.3333 4.96145 18.3333 5.22329V20.1667C18.3333 20.6729 17.9229 21.0833 17.4167 21.0833Z" stroke="#96AECD" stroke-width="1.83333"/>
<rect y="6.41669" width="22" height="11.9167" rx="1.83333" fill="#96AECD"/>
<path d="M9.9325 14.6082C9.71497 14.8499 9.39673 15.0446 8.97778 15.1923C8.55884 15.34 8.09961 15.4139 7.6001 15.4139C6.83203 15.4139 6.21838 15.1789 5.75916 14.7089C5.29993 14.239 5.0542 13.585 5.02197 12.7471L5.01794 12.2396C5.01794 11.6622 5.12 11.1586 5.3241 10.7289C5.5282 10.2966 5.81958 9.9649 6.19824 9.73395C6.57959 9.50031 7.02002 9.38348 7.51953 9.38348C8.25 9.38348 8.81665 9.55133 9.21948 9.88702C9.625 10.22 9.86133 10.7182 9.92847 11.3815H8.56689C8.51855 11.0539 8.41382 10.8203 8.25269 10.6806C8.09155 10.541 7.86328 10.4711 7.56787 10.4711C7.21338 10.4711 6.93945 10.6215 6.74609 10.9223C6.55273 11.2231 6.45471 11.6528 6.45203 12.2114V12.5659C6.45203 13.1513 6.55139 13.5917 6.75012 13.8871C6.95154 14.1799 7.26709 14.3262 7.69678 14.3262C8.0647 14.3262 8.33862 14.2443 8.51855 14.0805V13.1701H7.53564V12.1993H9.9325V14.6082Z" fill="white"/>
<path d="M12.2609 15.3333H10.851V9.46808H12.2609V15.3333Z" fill="white"/>
<path d="M16.9377 12.9969H14.6577V15.3333H13.2438V9.46808H17.1674V10.5598H14.6577V11.9092H16.9377V12.9969Z" fill="white"/>
</svg>
