<svg width="22" height="22" viewBox="0 0 22 22" fill="none" xmlns="http://www.w3.org/2000/svg">
<path d="M17.4167 21.0833H4.58333C4.07707 21.0833 3.66667 20.6729 3.66667 20.1667V1.83333C3.66667 1.32707 4.07707 0.916667 4.58333 0.916667H13.603C13.8275 0.916667 14.0442 0.999056 14.212 1.14821L14.8085 0.477065L14.212 1.14821L18.0257 4.53816C18.2214 4.71212 18.3333 4.96145 18.3333 5.22329V20.1667C18.3333 20.6729 17.9229 21.0833 17.4167 21.0833Z" stroke="#96AECD" stroke-width="1.83333"/>
<rect y="6.41669" width="22" height="11.9167" rx="1.83333" fill="#96AECD"/>
<path d="M5.96057 9.46808H7.37048V13.4924C7.37048 13.8657 7.2832 14.1987 7.10864 14.4914C6.93677 14.7841 6.69507 15.011 6.38354 15.1722C6.07471 15.3333 5.72961 15.4139 5.34827 15.4139C4.70911 15.4139 4.21228 15.2527 3.85779 14.9305C3.5033 14.6082 3.32605 14.1517 3.32605 13.5609H4.74402C4.74402 13.8294 4.78967 14.0241 4.88098 14.145C4.97498 14.2658 5.13074 14.3262 5.34827 14.3262C5.54431 14.3262 5.6947 14.2537 5.79944 14.1087C5.90686 13.961 5.96057 13.7556 5.96057 13.4924V9.46808Z" fill="white"/>
<path d="M9.67871 13.3433V15.3333H8.26477V9.46808H10.6052C11.0537 9.46808 11.4498 9.55133 11.7936 9.71783C12.14 9.88165 12.4072 10.1166 12.5952 10.4228C12.7859 10.7263 12.8812 11.0714 12.8812 11.4581C12.8812 12.0301 12.6758 12.488 12.2649 12.8317C11.8567 13.1728 11.2954 13.3433 10.5811 13.3433H9.67871ZM9.67871 12.2516H10.6052C10.8792 12.2516 11.0873 12.1832 11.2296 12.0462C11.3746 11.9092 11.4471 11.7159 11.4471 11.4661C11.4471 11.1922 11.3733 10.9733 11.2256 10.8095C11.0779 10.6457 10.8765 10.5624 10.6213 10.5598H9.67871V12.2516Z" fill="white"/>
<path d="M18.4403 14.6082C18.2228 14.8499 17.9045 15.0446 17.4856 15.1923C17.0667 15.34 16.6074 15.4139 16.1079 15.4139C15.3398 15.4139 14.7262 15.1789 14.267 14.7089C13.8077 14.239 13.562 13.585 13.5298 12.7471L13.5258 12.2396C13.5258 11.6622 13.6278 11.1586 13.8319 10.7289C14.036 10.2966 14.3274 9.9649 14.7061 9.73395C15.0874 9.50031 15.5278 9.38348 16.0273 9.38348C16.7578 9.38348 17.3245 9.55133 17.7273 9.88702C18.1328 10.22 18.3691 10.7182 18.4363 11.3815H17.0747C17.0264 11.0539 16.9216 10.8203 16.7605 10.6806C16.5994 10.541 16.3711 10.4711 16.0757 10.4711C15.7212 10.4711 15.4473 10.6215 15.2539 10.9223C15.0605 11.2231 14.9625 11.6528 14.9598 12.2114V12.5659C14.9598 13.1513 15.0592 13.5917 15.2579 13.8871C15.4594 14.1799 15.7749 14.3262 16.2046 14.3262C16.5725 14.3262 16.8464 14.2443 17.0264 14.0805V13.1701H16.0435V12.1993H18.4403V14.6082Z" fill="white"/>
</svg>
