<svg width="22" height="22" viewBox="0 0 22 22" fill="none" xmlns="http://www.w3.org/2000/svg">
<path d="M17.4167 21.0833H4.58333C4.07707 21.0833 3.66667 20.6729 3.66667 20.1667V1.83333C3.66667 1.32707 4.07707 0.916667 4.58333 0.916667H13.603C13.8275 0.916667 14.0442 0.999056 14.212 1.14821L14.8085 0.477065L14.212 1.14821L18.0257 4.53816C18.2214 4.71212 18.3333 4.96145 18.3333 5.22329V20.1667C18.3333 20.6729 17.9229 21.0833 17.4167 21.0833Z" stroke="#96AECD" stroke-width="1.83333"/>
<rect y="6.41669" width="22" height="11.9167" rx="1.83333" fill="#96AECD"/>
<path d="M4.40186 9.46808L5.71106 13.5488L7.01624 9.46808H8.87732V15.3333H7.45935V13.9637L7.59631 11.16L6.17834 15.3333H5.24377L3.82178 11.1559L3.95874 13.9637V15.3333H2.5448V9.46808H4.40186Z" fill="white"/>
<path d="M14.7466 12.5215C14.7466 13.0936 14.6405 13.5998 14.4283 14.0402C14.2162 14.4807 13.9141 14.8204 13.522 15.0594C13.1326 15.2957 12.6881 15.4139 12.1886 15.4139C11.6891 15.4139 11.246 15.2997 10.8593 15.0715C10.4725 14.8405 10.1704 14.5115 9.95288 14.0845C9.73804 13.6575 9.62524 13.1674 9.6145 12.6142V12.2839C9.6145 11.7092 9.71924 11.2029 9.92871 10.7652C10.1409 10.3248 10.443 9.98505 10.8351 9.74603C11.2299 9.50702 11.6783 9.38751 12.1805 9.38751C12.6774 9.38751 13.1205 9.50568 13.5099 9.742C13.8993 9.97833 14.2014 10.3154 14.4163 10.7531C14.6338 11.1882 14.7439 11.6877 14.7466 12.2516V12.5215ZM13.3085 12.2758C13.3085 11.6931 13.2104 11.2513 13.0144 10.9505C12.821 10.647 12.5431 10.4953 12.1805 10.4953C11.4716 10.4953 11.0969 11.027 11.0566 12.0905L11.0526 12.5215C11.0526 13.0963 11.1479 13.538 11.3386 13.8469C11.5293 14.1557 11.8126 14.3101 12.1886 14.3101C12.5458 14.3101 12.821 14.1584 13.0144 13.8549C13.2078 13.5515 13.3058 13.1151 13.3085 12.5457V12.2758Z" fill="white"/>
<path d="M17.6631 13.7381L18.8313 9.46808H20.4104L18.4365 15.3333H16.8896L14.9319 9.46808H16.4989L17.6631 13.7381Z" fill="white"/>
</svg>
