<svg width="22" height="22" viewBox="0 0 22 22" fill="none" xmlns="http://www.w3.org/2000/svg">
<path d="M17.4167 21.0833H4.58333C4.07707 21.0833 3.66667 20.6729 3.66667 20.1667V1.83333C3.66667 1.32707 4.07707 0.916667 4.58333 0.916667H13.603C13.8275 0.916667 14.0442 0.999056 14.212 1.14821L14.8085 0.477065L14.212 1.14821L18.0257 4.53816C18.2214 4.71212 18.3333 4.96145 18.3333 5.22329V20.1667C18.3333 20.6729 17.9229 21.0833 17.4167 21.0833Z" stroke="#96AECD" stroke-width="1.83333"/>
<rect y="6.41669" width="22" height="11.9167" rx="1.83333" fill="#96AECD"/>
<path d="M4.35706 9.46808L5.66626 13.5488L6.97144 9.46808H8.83252V15.3333H7.41455V13.9637L7.55151 11.16L6.13354 15.3333H5.19897L3.77698 11.1559L3.91394 13.9637V15.3333H2.5V9.46808H4.35706Z" fill="white"/>
<path d="M11.1488 13.3433V15.3333H9.73486V9.46808H12.0753C12.5238 9.46808 12.9199 9.55133 13.2637 9.71783C13.6101 9.88165 13.8773 10.1166 14.0653 10.4228C14.256 10.7263 14.3513 11.0714 14.3513 11.4581C14.3513 12.0301 14.1459 12.488 13.735 12.8317C13.3268 13.1728 12.7655 13.3433 12.0511 13.3433H11.1488ZM11.1488 12.2516H12.0753C12.3492 12.2516 12.5574 12.1832 12.6997 12.0462C12.8447 11.9092 12.9172 11.7159 12.9172 11.4661C12.9172 11.1922 12.8434 10.9733 12.6957 10.8095C12.548 10.6457 12.3466 10.5624 12.0914 10.5598H11.1488V12.2516Z" fill="white"/>
<path d="M16.2648 11.8327H16.9053C17.4128 11.8327 17.6666 11.5843 17.6666 11.0875C17.6666 10.8941 17.6062 10.737 17.4854 10.6161C17.3645 10.4926 17.194 10.4308 16.9738 10.4308C16.7938 10.4308 16.6367 10.4832 16.5024 10.588C16.3708 10.6927 16.3051 10.8229 16.3051 10.9787H14.9475C14.9475 10.6699 15.0334 10.3946 15.2053 10.1529C15.3772 9.91119 15.6149 9.72321 15.9183 9.58893C16.2245 9.45197 16.5602 9.38348 16.9254 9.38348C17.578 9.38348 18.0909 9.53253 18.4642 9.83063C18.8375 10.1287 19.0242 10.5383 19.0242 11.0593C19.0242 11.3117 18.9463 11.5507 18.7905 11.7763C18.6375 11.9992 18.4132 12.1805 18.1178 12.3201C18.4293 12.4329 18.6737 12.6048 18.851 12.8358C19.0282 13.064 19.1168 13.3474 19.1168 13.6857C19.1168 14.2094 18.9154 14.6284 18.5126 14.9426C18.1097 15.2568 17.5807 15.4139 16.9254 15.4139C16.5414 15.4139 16.1842 15.3414 15.8539 15.1964C15.5262 15.0486 15.2778 14.8459 15.1086 14.5881C14.9395 14.3276 14.8549 14.0322 14.8549 13.7018H16.2205C16.2205 13.8818 16.293 14.0375 16.438 14.1691C16.583 14.3007 16.7616 14.3665 16.9738 14.3665C17.2128 14.3665 17.4034 14.3007 17.5458 14.1691C17.6881 14.0349 17.7593 13.8643 17.7593 13.6575C17.7593 13.3621 17.6854 13.1526 17.5377 13.0291C17.39 12.9056 17.1859 12.8438 16.9254 12.8438H16.2648V11.8327Z" fill="white"/>
</svg>
