<svg width="22" height="15" viewBox="0 0 22 15" fill="none" xmlns="http://www.w3.org/2000/svg">
<path fill-rule="evenodd" clip-rule="evenodd" d="M0.160227 0.442884C0.457058 -0.0091736 1.06571 -0.136027 1.51969 0.159549L5.55479 2.78673C7.01319 1.91179 8.71849 1.2582 10.5587 1.2582C16.0055 1.2582 20.2702 6.98429 20.4492 7.22811C20.619 7.45918 20.619 7.77313 20.4492 8.0044C20.3659 8.11786 19.3959 9.42097 17.8329 10.7808L21.5552 13.2043C22.0092 13.4999 22.1366 14.106 21.8398 14.558C21.6596 14.8325 21.3644 14.9871 21.0587 15C20.9889 14.8072 20.8579 14.6346 20.6724 14.5138L0.636874 1.46903C0.458521 1.3529 0.256296 1.30198 0.0584839 1.31036C-0.0424861 1.03138 -0.0153018 0.710204 0.160227 0.442884ZM2.59551 5.08117C1.4396 6.1899 0.738412 7.13216 0.668155 7.22787C0.498636 7.45918 0.498636 7.7729 0.668155 8.0042C0.84695 8.24802 5.11187 13.9741 10.5587 13.9741C12.0326 13.9741 13.42 13.5548 14.6633 12.9383L12.683 11.6489C11.991 11.8829 11.2787 12.0182 10.5587 12.0182C8.50949 12.0182 6.52202 10.922 4.89219 9.57536C4.02833 8.8616 3.33855 8.13822 2.88114 7.6161C3.22605 7.22242 3.70298 6.71443 4.28695 6.18243L2.59551 5.08117ZM7.75898 8.443C8.05912 9.70488 9.19792 10.6437 10.5569 10.6437C10.7318 10.6437 10.9031 10.6282 11.0694 10.5984L7.75898 8.443ZM7.41952 4.00082L9.28217 5.21355C9.66634 5.02403 10.0991 4.91749 10.5569 4.91749C12.1449 4.91749 13.4322 6.19936 13.4322 7.78061C13.4322 7.82518 13.4312 7.8695 13.4291 7.91357L16.1172 9.66373C16.1534 9.6344 16.1893 9.60495 16.2251 9.57537C17.0888 8.86176 17.7785 8.13851 18.2362 7.61619C17.7786 7.09394 17.0889 6.37063 16.2251 5.65693C14.5953 4.31028 12.6079 3.21412 10.5587 3.21412C9.48087 3.21412 8.42013 3.51737 7.41952 4.00082Z" fill="#95AECD"/>
</svg>
