<svg width="22" height="22" viewBox="0 0 22 22" fill="none" xmlns="http://www.w3.org/2000/svg">
<path d="M17.4167 21.0833H4.58333C4.07707 21.0833 3.66667 20.6729 3.66667 20.1667V1.83333C3.66667 1.32707 4.07707 0.916667 4.58333 0.916667H13.603C13.8275 0.916667 14.0442 0.999056 14.212 1.14821L14.8085 0.477065L14.212 1.14821L18.0257 4.53816C18.2214 4.71212 18.3333 4.96145 18.3333 5.22329V20.1667C18.3333 20.6729 17.9229 21.0833 17.4167 21.0833Z" stroke="#96AECD" stroke-width="1.83333"/>
<rect y="6.41669" width="22" height="11.9167" rx="1.83333" fill="#96AECD"/>
<path d="M5.24756 13.3433V15.3333H3.83362V9.46808H6.17407C6.62256 9.46808 7.01868 9.55133 7.36243 9.71783C7.70886 9.88165 7.97607 10.1166 8.16406 10.4228C8.35474 10.7263 8.45007 11.0714 8.45007 11.4581C8.45007 12.0301 8.24463 12.488 7.83374 12.8317C7.42554 13.1728 6.86426 13.3433 6.1499 13.3433H5.24756ZM5.24756 12.2516H6.17407C6.448 12.2516 6.65613 12.1832 6.79846 12.0462C6.94348 11.9092 7.01599 11.7159 7.01599 11.4661C7.01599 11.1922 6.94214 10.9733 6.79443 10.8095C6.64673 10.6457 6.44531 10.5624 6.19019 10.5598H5.24756V12.2516Z" fill="white"/>
<path d="M9.2074 15.3333V9.46808H11.0967C11.615 9.46808 12.0809 9.58624 12.4945 9.82257C12.9081 10.0562 13.2303 10.3879 13.4613 10.8176C13.6949 11.2446 13.8131 11.7239 13.8158 12.2557V12.5256C13.8158 13.0627 13.7017 13.5447 13.4734 13.9717C13.2478 14.3961 12.9282 14.7291 12.5146 14.9708C12.1038 15.2098 11.6445 15.3306 11.137 15.3333H9.2074ZM10.6213 10.5598V14.2457H11.1128C11.5183 14.2457 11.8298 14.102 12.0474 13.8146C12.2649 13.5246 12.3737 13.0949 12.3737 12.5256V12.2718C12.3737 11.7051 12.2649 11.2781 12.0474 10.9908C11.8298 10.7034 11.5129 10.5598 11.0967 10.5598H10.6213Z" fill="white"/>
<path d="M18.2349 12.9969H15.9548V15.3333H14.5409V9.46808H18.4645V10.5598H15.9548V11.9092H18.2349V12.9969Z" fill="white"/>
</svg>
