<svg width="10" height="9" viewBox="0 0 10 9" fill="none" xmlns="http://www.w3.org/2000/svg">
<path fill-rule="evenodd" clip-rule="evenodd" d="M8.30952 8.61387C9.13795 8.61387 9.80952 7.9423 9.80952 7.11387V2.98574C9.80952 2.15732 9.13795 1.48574 8.30952 1.48574H8.00483C7.77259 1.48574 7.54759 1.40491 7.36844 1.25711L6.57501 0.602506C6.39586 0.454707 6.17086 0.373871 5.93861 0.373871H4.22287C3.9749 0.373871 3.73577 0.466 3.55191 0.632376L2.89451 1.22724C2.71064 1.39361 2.47152 1.48574 2.22355 1.48574H1.5C0.671573 1.48574 0 2.15732 0 2.98574V7.11387C0 7.9423 0.671573 8.61387 1.5 8.61387H8.30952Z" fill="#43DD9C"/>
<path fill-rule="evenodd" clip-rule="evenodd" d="M4.98311 6.22033C5.82826 6.22033 6.51339 5.5352 6.51339 4.69005C6.51339 3.84489 5.82826 3.15976 4.98311 3.15976C4.13795 3.15976 3.45282 3.84489 3.45282 4.69005C3.45282 5.5352 4.13795 6.22033 4.98311 6.22033Z" fill="white"/>
</svg>
