<svg width="12" height="12" viewBox="0 0 12 12" fill="none" xmlns="http://www.w3.org/2000/svg">
<path fill-rule="evenodd" clip-rule="evenodd" d="M8.5515 1.12075e-05C8.95698 -0.00107699 9.3588 0.0770894 9.73391 0.230152C10.109 0.383219 10.4502 0.608243 10.7377 0.892561C11.0253 1.17689 11.2534 1.51492 11.4088 1.88736C11.5642 2.25981 11.6437 2.65917 11.6426 3.06241C11.6414 3.46565 11.5597 3.86456 11.4022 4.23615C11.2449 4.60729 11.0153 4.9437 10.7266 5.22624C10.7263 5.22657 10.726 5.2269 10.7256 5.22723L4.54655 11.3376C4.33383 11.548 4.0816 11.7146 3.80441 11.8281C3.52722 11.9416 3.23033 12 2.93063 12C2.63093 12 2.33404 11.9416 2.05686 11.8281C1.77966 11.7146 1.52744 11.548 1.31472 11.3377C1.10199 11.1273 0.932949 10.8773 0.817512 10.6017C0.70207 10.3261 0.642578 10.0305 0.642578 9.73187C0.642578 9.43324 0.70207 9.13766 0.817512 8.86206C0.93295 8.58648 1.102 8.33645 1.31472 8.12609L6.65457 2.84576C6.93545 2.57043 7.31402 2.41731 7.70716 2.41817C8.1003 2.41902 8.4782 2.57378 8.75788 2.85034C9.03774 3.12708 9.19638 3.50337 9.19726 3.89719C9.19813 4.291 9.04115 4.66799 8.7625 4.94596L8.76094 4.94752L5.52975 8.14249C5.33339 8.33665 5.01682 8.33487 4.82266 8.13851C4.6285 7.94215 4.63028 7.62557 4.82664 7.43141L8.05626 4.23799C8.05649 4.23777 8.05604 4.23822 8.05626 4.23799C8.14706 4.14705 8.19754 4.02482 8.19726 3.8994C8.19698 3.77367 8.1464 3.65202 8.05475 3.5614C7.96291 3.47058 7.83726 3.41845 7.705 3.41816C7.57305 3.41788 7.44744 3.46922 7.35525 3.55925C7.35503 3.55947 7.35547 3.55903 7.35525 3.55925L2.01786 8.83715C1.89851 8.95517 1.80414 9.09497 1.73986 9.24842C1.67559 9.40187 1.64258 9.56612 1.64258 9.73187C1.64258 9.89762 1.67559 10.0619 1.73986 10.2153C1.80414 10.3688 1.89851 10.5086 2.01785 10.6266C2.13721 10.7446 2.27921 10.8385 2.43589 10.9027C2.59258 10.9669 2.76071 11 2.93063 11C3.10056 11 3.26868 10.9669 3.42537 10.9027C3.58205 10.8385 3.72405 10.7446 3.8434 10.6266L10.0264 4.5123C10.2213 4.32169 10.3759 4.09519 10.4815 3.84595C10.5871 3.59671 10.6418 3.3295 10.6426 3.05961C10.6433 2.78972 10.5901 2.52221 10.4859 2.27242C10.3817 2.0226 10.2284 1.79526 10.0346 1.6036C9.84077 1.41193 9.61024 1.25973 9.35611 1.15604C9.10198 1.05234 8.82943 0.999269 8.55419 1.00001C8.27894 1.00075 8.0067 1.05528 7.75314 1.16034C7.4996 1.26539 7.26992 1.41881 7.07716 1.61152L7.07522 1.61345L3.00107 5.64199C2.80471 5.83615 2.48814 5.83437 2.29398 5.63801C2.09982 5.44165 2.1016 5.12507 2.29795 4.93091L6.37016 0.904304C6.37049 0.903975 6.37082 0.903646 6.37114 0.903317C6.65689 0.617917 6.9965 0.391402 7.37036 0.236499C7.74464 0.0814216 8.14603 0.00109944 8.5515 1.12075e-05Z" fill="#107EFF"/>
</svg>
