<svg width="9" height="11" viewBox="0 0 9 11"  xmlns="http://www.w3.org/2000/svg">
<path fill-rule="evenodd" clip-rule="evenodd" d="M5.61476 1.35417e-05C6.06502 -0.00130217 6.5101 0.0932734 6.92405 0.277179C7.33788 0.461033 7.71135 0.730024 8.02407 1.06673C8.33671 1.40336 8.58268 1.80122 8.74951 2.23658C8.91633 2.6719 9.00119 3.1373 8.99999 3.60631C8.99878 4.07532 8.91152 4.54023 8.74245 4.97461C8.57341 5.40891 8.32544 5.80527 8.01112 6.14004C8.01104 6.14012 8.0112 6.13996 8.01112 6.14004L4.19727 10.2124C4.19704 10.2126 4.1968 10.2129 4.19657 10.2131C3.96726 10.4598 3.69308 10.6577 3.38861 10.7935C3.08372 10.9294 2.75549 11 2.42301 11C2.05269 11 1.74469 10.8808 1.48766 10.7661C1.17071 10.6248 0.859731 10.3782 0.640605 10.1422C0.546171 10.0406 0.457672 9.94154 0.379881 9.82343C0.299526 9.70142 0.241895 9.57676 0.184907 9.42863C0.0625752 9.11066 0 8.77099 0 8.42873C0 8.08647 0.0625751 7.74681 0.184907 7.42883C0.307251 7.11083 0.487434 6.8196 0.716822 6.57263L0.718724 6.57058L4.12063 2.94873C4.12071 2.94864 4.12056 2.94881 4.12063 2.94873C4.41904 2.63038 4.83081 2.44443 5.26783 2.44546C5.43198 2.44584 5.61696 2.45692 5.8039 2.53331C5.99536 2.61155 6.13865 2.7371 6.26497 2.8731C6.39406 3.01209 6.50444 3.162 6.56872 3.35675C6.6288 3.53879 6.63423 3.72046 6.63456 3.88173C6.63544 4.31752 6.47632 4.7426 6.18184 5.06245L6.17845 5.06612L3.12837 8.31321C2.93931 8.51449 2.62288 8.52439 2.4216 8.33533C2.22033 8.14627 2.21043 7.82984 2.39949 7.62857L5.44761 4.38354C5.56415 4.25612 5.63495 4.07707 5.63456 3.88376C5.63425 3.73007 5.62513 3.68842 5.61911 3.67018C5.61906 3.67002 5.61917 3.67038 5.61911 3.67018C5.61698 3.66356 5.60776 3.63493 5.53226 3.55364C5.4921 3.51041 5.46569 3.48691 5.44862 3.47376C5.43377 3.46232 5.42719 3.45964 5.4257 3.45903C5.4213 3.45724 5.39322 3.44576 5.26547 3.44545C5.11755 3.44511 4.96745 3.5075 4.85037 3.63246L1.44863 7.25414C1.30866 7.4051 1.19583 7.58616 1.11822 7.7879C1.04043 7.9901 1 8.20796 1 8.42873C1 8.64951 1.04043 8.86736 1.11822 9.06956C1.16129 9.18152 1.18891 9.23375 1.21502 9.27339C1.24369 9.31692 1.28286 9.36429 1.37331 9.46168C1.52396 9.62388 1.72878 9.77873 1.89497 9.85285C2.12108 9.95369 2.27039 10 2.42301 10C2.61348 10 2.80307 9.95966 2.98131 9.88017C3.15967 9.80063 3.32424 9.68293 3.46456 9.53185L3.46597 9.53034L7.28146 5.45622C7.50598 5.21715 7.68666 4.93017 7.81055 4.61188C7.93446 4.29356 7.9991 3.95084 7.99999 3.60374C8.00088 3.25663 7.938 2.91351 7.81572 2.5944C7.69345 2.27533 7.51468 1.98772 7.29134 1.74725C7.06807 1.50685 6.80491 1.3185 6.51804 1.19105C6.23129 1.06365 5.92543 0.99911 5.61768 1.00001C5.30994 1.00091 5.00437 1.06724 4.71821 1.19634C4.43192 1.32549 4.16965 1.51542 3.94754 1.75718L3.9438 1.76125L1.31721 4.55748C1.12815 4.75875 0.811724 4.76866 0.610451 4.5796C0.409177 4.39054 0.399276 4.07411 0.588336 3.87283L3.21308 1.07853C3.52365 0.741041 3.89501 0.470655 4.30699 0.2848C4.71994 0.0985037 5.1645 0.00132928 5.61476 1.35417e-05Z" fill="white"/>
</svg>
