<svg width="14" height="14" viewBox="0 0 14 14" fill="none" xmlns="http://www.w3.org/2000/svg">
<path fill-rule="evenodd" clip-rule="evenodd" d="M8.05186 1.05155C8.05186 0.470794 7.58105 -4.43251e-08 7.00029 0C6.41952 -4.43251e-08 5.94872 0.470794 5.94872 1.05155V5.94843H1.05157C0.470802 5.94843 -7.09121e-07 6.41922 0 6.99998C-7.09121e-07 7.58073 0.470802 8.05153 1.05157 8.05152H5.94872V12.9485C5.94872 13.5292 6.41952 14 7.00029 14C7.58105 14 8.05186 13.5292 8.05186 12.9485V8.05153H12.9487C13.5295 8.05153 14.0003 7.58073 14.0003 6.99998C14.0003 6.41922 13.5295 5.94843 12.9487 5.94843H8.05186V1.05155Z" fill="#95AECD"/>
</svg>
