<svg width="22" height="22" viewBox="0 0 22 22" fill="none" xmlns="http://www.w3.org/2000/svg">
<path d="M17.4167 21.0833H4.58333C4.07707 21.0833 3.66667 20.6729 3.66667 20.1667V1.83333C3.66667 1.32707 4.07707 0.916667 4.58333 0.916667H13.603C13.8275 0.916667 14.0442 0.999056 14.212 1.14821L14.8085 0.477065L14.212 1.14821L18.0257 4.53816C18.2214 4.71212 18.3333 4.96145 18.3333 5.22329V20.1667C18.3333 20.6729 17.9229 21.0833 17.4167 21.0833Z" stroke="#96AECD" stroke-width="1.83333"/>
<rect y="6.41669" width="22" height="11.9167" rx="1.83333" fill="#96AECD"/>
<path d="M4.71204 13.3433V15.3333H3.2981V9.46808H5.63855C6.08704 9.46808 6.48315 9.55133 6.8269 9.71783C7.17334 9.88165 7.44055 10.1166 7.62854 10.4228C7.81921 10.7263 7.91455 11.0714 7.91455 11.4581C7.91455 12.0301 7.70911 12.488 7.29822 12.8317C6.89001 13.1728 6.32874 13.3433 5.61438 13.3433H4.71204ZM4.71204 12.2516H5.63855C5.91248 12.2516 6.12061 12.1832 6.26294 12.0462C6.40796 11.9092 6.48047 11.7159 6.48047 11.4661C6.48047 11.1922 6.40662 10.9733 6.25891 10.8095C6.11121 10.6457 5.90979 10.5624 5.65466 10.5598H4.71204V12.2516Z" fill="white"/>
<path d="M13.5703 15.3333H12.1644L10.0858 11.6837V15.3333H8.67188V9.46808H10.0858L12.1604 13.1177V9.46808H13.5703V15.3333Z" fill="white"/>
<path d="M19.2664 14.6082C19.0488 14.8499 18.7306 15.0446 18.3116 15.1923C17.8927 15.34 17.4335 15.4139 16.934 15.4139C16.1659 15.4139 15.5522 15.1789 15.093 14.7089C14.6338 14.239 14.3881 13.585 14.3558 12.7471L14.3518 12.2396C14.3518 11.6622 14.4539 11.1586 14.658 10.7289C14.8621 10.2966 15.1534 9.9649 15.5321 9.73395C15.9135 9.50031 16.3539 9.38348 16.8534 9.38348C17.5839 9.38348 18.1505 9.55133 18.5533 9.88702C18.9589 10.22 19.1952 10.7182 19.2623 11.3815H17.9008C17.8524 11.0539 17.7477 10.8203 17.5865 10.6806C17.4254 10.541 17.1971 10.4711 16.9017 10.4711C16.5472 10.4711 16.2733 10.6215 16.08 10.9223C15.8866 11.2231 15.7886 11.6528 15.7859 12.2114V12.5659C15.7859 13.1513 15.8853 13.5917 16.084 13.8871C16.2854 14.1799 16.601 14.3262 17.0306 14.3262C17.3986 14.3262 17.6725 14.2443 17.8524 14.0805V13.1701H16.8695V12.1993H19.2664V14.6082Z" fill="white"/>
</svg>
