<svg width="22" height="22" viewBox="0 0 22 22" fill="none" xmlns="http://www.w3.org/2000/svg">
<path d="M17.4167 21.0833H4.58333C4.07707 21.0833 3.66667 20.6729 3.66667 20.1667V1.83333C3.66667 1.32707 4.07707 0.916667 4.58333 0.916667H13.603C13.8275 0.916667 14.0442 0.999056 14.212 1.14821L14.8085 0.477065L14.212 1.14821L18.0257 4.53816C18.2214 4.71212 18.3333 4.96145 18.3333 5.22329V20.1667C18.3333 20.6729 17.9229 21.0833 17.4167 21.0833Z" stroke="#96AECD" stroke-width="1.83333"/>
<rect y="6.41669" width="22" height="11.9167" rx="1.83333" fill="#96AECD"/>
<path d="M4.63098 13.3433V15.3333H3.21704V9.46808H5.5575C6.00598 9.46808 6.4021 9.55133 6.74585 9.71783C7.09229 9.88165 7.3595 10.1166 7.54749 10.4228C7.73816 10.7263 7.8335 11.0714 7.8335 11.4581C7.8335 12.0301 7.62805 12.488 7.21716 12.8317C6.80896 13.1728 6.24768 13.3433 5.53333 13.3433H4.63098ZM4.63098 12.2516H5.5575C5.83142 12.2516 6.03955 12.1832 6.18188 12.0462C6.3269 11.9092 6.39941 11.7159 6.39941 11.4661C6.39941 11.1922 6.32556 10.9733 6.17786 10.8095C6.03015 10.6457 5.82874 10.5624 5.57361 10.5598H4.63098V12.2516Z" fill="white"/>
<path d="M10.0048 13.3433V15.3333H8.59082V9.46808H10.9313C11.3798 9.46808 11.7759 9.55133 12.1196 9.71783C12.4661 9.88165 12.7333 10.1166 12.9213 10.4228C13.1119 10.7263 13.2073 11.0714 13.2073 11.4581C13.2073 12.0301 13.0018 12.488 12.5909 12.8317C12.1827 13.1728 11.6215 13.3433 10.9071 13.3433H10.0048ZM10.0048 12.2516H10.9313C11.2052 12.2516 11.4133 12.1832 11.5557 12.0462C11.7007 11.9092 11.7732 11.7159 11.7732 11.4661C11.7732 11.1922 11.6993 10.9733 11.5516 10.8095C11.4039 10.6457 11.2025 10.5624 10.9474 10.5598H10.0048V12.2516Z" fill="white"/>
<path d="M18.569 10.5598H16.8086V15.3333H15.3947V10.5598H13.6665V9.46808H18.569V10.5598Z" fill="white"/>
</svg>
