<svg width="22" height="22" viewBox="0 0 22 22" fill="none" xmlns="http://www.w3.org/2000/svg">
<path d="M17.4167 21.0833H4.58333C4.07707 21.0833 3.66667 20.6729 3.66667 20.1667V1.83333C3.66667 1.32707 4.07707 0.916667 4.58333 0.916667H13.603C13.8275 0.916667 14.0442 0.999056 14.212 1.14821L14.8085 0.477065L14.212 1.14821L18.0257 4.53816C18.2214 4.71212 18.3333 4.96145 18.3333 5.22329V20.1667C18.3333 20.6729 17.9229 21.0833 17.4167 21.0833Z" stroke="#96AECD" stroke-width="1.83333"/>
<rect y="6.41669" width="22" height="11.9167" rx="1.83333" fill="#96AECD"/>
<path d="M5.42883 13.2628H4.66345V15.3333H3.24951V9.46808H5.55774C6.2533 9.46808 6.79712 9.6225 7.18921 9.93134C7.5813 10.2402 7.77734 10.6766 7.77734 11.2405C7.77734 11.6487 7.69409 11.9871 7.52759 12.2557C7.36377 12.5242 7.10596 12.7418 6.75415 12.9083L7.97876 15.2729V15.3333H6.46411L5.42883 13.2628ZM4.66345 12.1711H5.55774C5.82629 12.1711 6.02771 12.1013 6.16199 11.9616C6.29895 11.8193 6.36743 11.6219 6.36743 11.3694C6.36743 11.117 6.29895 10.9196 6.16199 10.7773C6.02502 10.6323 5.82361 10.5598 5.55774 10.5598H4.66345V12.1711Z" fill="white"/>
<path d="M11.9628 14.2376H10.0251L9.68677 15.3333H8.17615L10.3273 9.46808H11.6566L13.8239 15.3333H12.3052L11.9628 14.2376ZM10.3635 13.1459H11.6244L10.9919 11.1116L10.3635 13.1459Z" fill="white"/>
<path d="M16.4342 13.2628H15.6688V15.3333H14.2549V9.46808H16.5631C17.2587 9.46808 17.8025 9.6225 18.1946 9.93134C18.5867 10.2402 18.7827 10.6766 18.7827 11.2405C18.7827 11.6487 18.6995 11.9871 18.533 12.2557C18.3691 12.5242 18.1113 12.7418 17.7595 12.9083L18.9841 15.2729V15.3333H17.4695L16.4342 13.2628ZM15.6688 12.1711H16.5631C16.8317 12.1711 17.0331 12.1013 17.1674 11.9616C17.3043 11.8193 17.3728 11.6219 17.3728 11.3694C17.3728 11.117 17.3043 10.9196 17.1674 10.7773C17.0304 10.6323 16.829 10.5598 16.5631 10.5598H15.6688V12.1711Z" fill="white"/>
</svg>
