<svg width="22" height="22" viewBox="0 0 22 22" fill="none" xmlns="http://www.w3.org/2000/svg">
<path d="M17.4167 21.0833H4.58333C4.07707 21.0833 3.66667 20.6729 3.66667 20.1667V1.83333C3.66667 1.32707 4.07707 0.916667 4.58333 0.916667H13.603C13.8275 0.916667 14.0442 0.999056 14.212 1.14821L14.8085 0.477065L14.212 1.14821L18.0257 4.53816C18.2214 4.71212 18.3333 4.96145 18.3333 5.22329V20.1667C18.3333 20.6729 17.9229 21.0833 17.4167 21.0833Z" stroke="#96AECD" stroke-width="1.83333"/>
<rect y="6.41669" width="22" height="11.9167" rx="1.83333" fill="#96AECD"/>
<path d="M6.42407 13.2628H5.65869V15.3333H4.24475V9.46808H6.55298C7.24854 9.46808 7.79236 9.6225 8.18445 9.93134C8.57654 10.2402 8.77258 10.6766 8.77258 11.2405C8.77258 11.6487 8.68933 11.9871 8.52283 12.2557C8.35901 12.5242 8.1012 12.7418 7.74939 12.9083L8.974 15.2729V15.3333H7.45935L6.42407 13.2628ZM5.65869 12.1711H6.55298C6.82153 12.1711 7.02295 12.1013 7.15723 11.9616C7.29419 11.8193 7.36267 11.6219 7.36267 11.3694C7.36267 11.117 7.29419 10.9196 7.15723 10.7773C7.02026 10.6323 6.81885 10.5598 6.55298 10.5598H5.65869V12.1711Z" fill="white"/>
<path d="M14.0295 10.5598H12.2692V15.3333H10.8552V10.5598H9.12708V9.46808H14.0295V10.5598Z" fill="white"/>
<path d="M18.3237 12.9969H16.0437V15.3333H14.6298V9.46808H18.5533V10.5598H16.0437V11.9092H18.3237V12.9969Z" fill="white"/>
</svg>
