<svg width="7" height="5" viewBox="0 0 7 5" fill="none" xmlns="http://www.w3.org/2000/svg">
<path fill-rule="evenodd" clip-rule="evenodd" d="M6.69175 1.67175C7.10236 1.28931 7.10236 0.669262 6.69175 0.286827C6.28114 -0.0956089 5.61541 -0.0956089 5.20479 0.286827L2.68349 2.63513L1.79491 1.80753C1.3843 1.42509 0.718568 1.42509 0.307958 1.80753C-0.102653 2.18996 -0.102653 2.81001 0.307958 3.19245L1.90793 4.68264C1.91812 4.69296 1.92858 4.70314 1.93933 4.71315C2.14401 4.90378 2.41207 4.99939 2.68033 4.99997C2.95069 5.00088 3.22136 4.90527 3.42764 4.71315C3.4384 4.70313 3.44888 4.69294 3.45907 4.68261L6.69175 1.67175Z" fill="#107EFF"/>
</svg>
