<svg width="22" height="22" viewBox="0 0 22 22" fill="none" xmlns="http://www.w3.org/2000/svg">
<path d="M17.4167 21.0833H4.58333C4.07707 21.0833 3.66667 20.6729 3.66667 20.1667V1.83333C3.66667 1.32707 4.07707 0.916667 4.58333 0.916667H13.603C13.8275 0.916667 14.0442 0.999056 14.212 1.14821L14.8085 0.477065L14.212 1.14821L18.0257 4.53816C18.2214 4.71212 18.3333 4.96145 18.3333 5.22329V20.1667C18.3333 20.6729 17.9229 21.0833 17.4167 21.0833Z" stroke="#96AECD" stroke-width="1.83333"/>
<rect y="6.41669" width="22" height="11.9167" rx="1.83333" fill="#96AECD"/>
<path d="M7.95837 10.5598H6.198V15.3333H4.78406V10.5598H3.05591V9.46808H7.95837V10.5598Z" fill="white"/>
<path d="M10.746 11.4178L11.7047 9.46808H13.3201L11.6805 12.3765L13.3644 15.3333H11.7329L10.746 13.3474L9.75903 15.3333H8.13159L9.8114 12.3765L8.1759 9.46808H9.78723L10.746 11.4178Z" fill="white"/>
<path d="M18.432 10.5598H16.6716V15.3333H15.2577V10.5598H13.5295V9.46808H18.432V10.5598Z" fill="white"/>
</svg>
