<svg width="13" height="16" viewBox="0 0 13 16" fill="none" xmlns="http://www.w3.org/2000/svg">
<path fill-rule="evenodd" clip-rule="evenodd" d="M4.99696 0C4.87031 0 4.74839 0.0480592 4.6558 0.134472L4.22723 0.534473C4.14439 0.611788 4.0959 0.704455 4.07683 0.799988H2.90039H1.0004C0.447893 0.799988 0 1.24788 0 1.80038C0 2.31914 0.394844 2.74567 0.900395 2.79585L0.900391 2.79999V14C0.900391 15.1046 1.79582 16 2.90039 16H10.1004C11.205 16 12.1004 15.1046 12.1004 14V2.79999L12.1004 2.79577C12.6056 2.74523 13 2.31887 13 1.80038C13 1.24788 12.5521 0.799988 11.9996 0.799988H10.1004H8.98423C8.96608 0.709643 8.92155 0.621669 8.84633 0.546447L8.44633 0.146447C8.35256 0.0526784 8.22538 0 8.09277 0H4.99696ZM10.1004 2.80078H2.90039L2.90039 14L10.1004 14L10.1004 2.80078ZM6 5.10986C6 4.55758 5.55228 4.10986 5 4.10986C4.44772 4.10986 4 4.55758 4 5.10986V11.7483C4 12.3005 4.44772 12.7483 5 12.7483C5.55228 12.7483 6 12.3005 6 11.7483V5.10986ZM8.00098 4.10986C8.55326 4.10986 9.00098 4.55758 9.00098 5.10986V11.7483C9.00098 12.3005 8.55326 12.7483 8.00098 12.7483C7.44869 12.7483 7.00098 12.3005 7.00098 11.7483V5.10986C7.00098 4.55758 7.44869 4.10986 8.00098 4.10986Z" fill="#107EFF"/>
</svg>
