<svg width="12" height="13" viewBox="0 0 12 13" fill="none" xmlns="http://www.w3.org/2000/svg">
<path fill-rule="evenodd" clip-rule="evenodd" d="M1.33398 8.18141C1.88627 8.18141 2.33398 8.62913 2.33398 9.18141V10.2269C2.33398 10.503 2.55784 10.7269 2.83398 10.7269H9.16732C9.44346 10.7269 9.66732 10.503 9.66732 10.2269V9.18141C9.66732 8.62913 10.115 8.18141 10.6673 8.18141C11.2196 8.18141 11.6673 8.62913 11.6673 9.18141V10.2269C11.6673 11.6076 10.548 12.7269 9.16732 12.7269H2.83398C1.45327 12.7269 0.333984 11.6076 0.333984 10.2269V9.18141C0.333984 8.62913 0.7817 8.18141 1.33398 8.18141ZM5.15159 8.89867C5.62022 9.3673 6.38002 9.3673 6.84865 8.89867L8.82844 6.91888C9.21896 6.52835 9.21896 5.89519 8.82844 5.50466C8.43791 5.11414 7.80475 5.11414 7.41422 5.50466L7.00098 5.91791V1.87688C7.00098 1.32459 6.55326 0.876876 6.00098 0.876876C5.44869 0.876876 5.00098 1.32459 5.00098 1.87688V5.91963L4.58601 5.50466C4.19549 5.11414 3.56232 5.11414 3.1718 5.50466C2.78128 5.89519 2.78128 6.52835 3.1718 6.91888L5.15159 8.89867Z" fill="#107EFF"/>
</svg>
