<svg width="20" height="14" viewBox="0 0 20 14" fill="none" xmlns="http://www.w3.org/2000/svg">
<path fill-rule="evenodd" clip-rule="evenodd" d="M9.99991 0C15.4371 0 19.6942 5.85514 19.8729 6.10445C20.0424 6.34072 20.0424 6.66176 19.8729 6.89823C19.6942 7.1473 15.4371 13.0025 9.99991 13.0025C4.56275 13.0025 0.305391 7.14734 0.126914 6.89803C-0.0423048 6.66152 -0.0423048 6.34073 0.126914 6.10421C0.305391 5.85514 4.56275 0 9.99991 0ZM15.6563 4.49787C16.5185 5.22764 17.207 5.96726 17.6638 6.50128C17.2069 7.03537 16.5184 7.77492 15.6563 8.50462C14.0294 9.88161 12.0455 11.0025 9.99991 11.0025C7.95434 11.0025 5.9704 9.88161 4.34346 8.50461C3.48113 7.77475 2.79257 7.03507 2.33597 6.50118C2.79266 5.96723 3.4812 5.22763 4.34345 4.49786C5.9704 3.12087 7.95434 2 9.99991 2C12.0455 2 14.0294 3.12086 15.6563 4.49787ZM9.99894 9.59699C11.5841 9.59699 12.8691 8.28623 12.8691 6.66934C12.8691 5.05245 11.5841 3.7417 9.99894 3.7417C8.41378 3.7417 7.12876 5.05245 7.12876 6.66934C7.12876 8.28623 8.41378 9.59699 9.99894 9.59699Z" fill="#95AECD"/>
</svg>
