<svg width="18" height="16" viewBox="0 0 18 16" fill="none" xmlns="http://www.w3.org/2000/svg">
<path fill-rule="evenodd" clip-rule="evenodd" d="M8.47789 3.02688L4.46918 6.06617C3.94793 6.46136 3.31201 6.67523 2.65819 6.67523H2V8.34406H2.65819C3.31201 8.34406 3.94793 8.55793 4.46918 8.95312L8.47789 11.9924V3.02688ZM3.26185 4.46962C3.0881 4.60135 2.87613 4.67265 2.65819 4.67265H1C0.447715 4.67265 0 5.12094 0 5.67394V9.34535C0 9.89835 0.447716 10.3466 1 10.3466H2.65819C2.87613 10.3466 3.0881 10.4179 3.26185 10.5497L8.87423 14.8048C9.53288 15.3042 10.4779 14.8338 10.4779 14.0065V1.01276C10.4779 0.185537 9.53288 -0.284873 8.87423 0.214493L3.26185 4.46962Z" fill="white"/>
<path fill-rule="evenodd" clip-rule="evenodd" d="M13.9842 4.00198C14.1894 3.48857 14.7714 3.23892 15.2842 3.44438C16.8834 4.08519 17.9997 5.67139 17.9997 7.50963C17.9997 9.34786 16.8834 10.9341 15.2842 11.5749C14.7714 11.7803 14.1894 11.5307 13.9842 11.0173C13.779 10.5039 14.0283 9.92109 14.5411 9.71564C15.3851 9.37745 15.9997 8.52491 15.9997 7.50963C15.9997 6.49434 15.3851 5.6418 14.5411 5.30362C14.0283 5.09816 13.779 4.5154 13.9842 4.00198Z" fill="white"/>
<path fill-rule="evenodd" clip-rule="evenodd" d="M11.2778 5.65639C11.4564 5.13309 12.0248 4.85378 12.5474 5.03255C13.5683 5.38176 14.4167 6.30473 14.4167 7.50964C14.4167 8.71455 13.5683 9.63752 12.5474 9.98673C12.0248 10.1655 11.4564 9.88619 11.2778 9.36289C11.0993 8.83958 11.3782 8.27044 11.9009 8.09167C12.2761 7.96332 12.4167 7.69667 12.4167 7.50964C12.4167 7.32261 12.2761 7.05596 11.9009 6.92761C11.3782 6.74884 11.0993 6.1797 11.2778 5.65639Z" fill="white"/>
</svg>
