<svg width="22" height="22" viewBox="0 0 22 22" fill="none" xmlns="http://www.w3.org/2000/svg">
<path d="M17.4167 21.0833H4.58333C4.07707 21.0833 3.66667 20.6729 3.66667 20.1667V1.83333C3.66667 1.32707 4.07707 0.916667 4.58333 0.916667H13.603C13.8275 0.916667 14.0442 0.999056 14.212 1.14821L14.8085 0.477065L14.212 1.14821L18.0257 4.53816C18.2214 4.71212 18.3333 4.96145 18.3333 5.22329V20.1667C18.3333 20.6729 17.9229 21.0833 17.4167 21.0833Z" stroke="#96AECD" stroke-width="1.83333"/>
<rect y="6.41669" width="22" height="11.9167" rx="1.83333" fill="#96AECD"/>
<path d="M6.85864 13.1459L7.53137 9.46808H8.93323L7.68848 15.3333H6.22217L5.43665 11.9898L4.66724 15.3333H3.20496L1.95618 9.46808H3.36206L4.03479 13.1459L4.84045 9.46808H6.04089L6.85864 13.1459Z" fill="white"/>
<path d="M12.6393 14.2376H10.7017L10.3633 15.3333H8.85266L11.0038 9.46808H12.3331L14.5004 15.3333H12.9817L12.6393 14.2376ZM11.04 13.1459H12.3009L11.6685 11.1116L11.04 13.1459Z" fill="white"/>
<path d="M16.8932 13.7381L18.0614 9.46808H19.6405L17.6666 15.3333H16.1198L14.162 9.46808H15.729L16.8932 13.7381Z" fill="white"/>
</svg>
