<svg width="22" height="22" viewBox="0 0 22 22" fill="none" xmlns="http://www.w3.org/2000/svg">
<path d="M17.4167 21.0833H4.58333C4.07707 21.0833 3.66667 20.6729 3.66667 20.1667V1.83333C3.66667 1.32707 4.07707 0.916667 4.58333 0.916667H13.603C13.8275 0.916667 14.0442 0.999056 14.212 1.14821L14.8085 0.477065L14.212 1.14821L18.0257 4.53816C18.2214 4.71212 18.3333 4.96145 18.3333 5.22329V20.1667C18.3333 20.6729 17.9229 21.0833 17.4167 21.0833Z" stroke="#96AECD" stroke-width="1.83333"/>
<rect y="6.41669" width="22" height="11.9167" rx="1.83333" fill="#96AECD"/>
<path d="M6.1781 11.4178L7.13684 9.46808H8.7522L7.11267 12.3765L8.79651 15.3333H7.16504L6.1781 13.3474L5.19116 15.3333H3.56372L5.24353 12.3765L3.60803 9.46808H5.21936L6.1781 11.4178Z" fill="white"/>
<path d="M10.6737 14.2457H13.135V15.3333H9.25977V9.46808H10.6737V14.2457Z" fill="white"/>
<path d="M16.7565 13.7744C16.7565 13.5676 16.6826 13.4064 16.5349 13.291C16.3899 13.1755 16.1334 13.056 15.7655 12.9324C15.3976 12.8089 15.0968 12.6894 14.8632 12.5739C14.1031 12.2006 13.7231 11.6877 13.7231 11.0351C13.7231 10.7101 13.8171 10.4241 14.0051 10.1771C14.1958 9.92731 14.4644 9.73395 14.8108 9.59698C15.1572 9.45734 15.5466 9.38751 15.979 9.38751C16.4006 9.38751 16.778 9.46271 17.111 9.6131C17.4467 9.76349 17.7072 9.97833 17.8925 10.2576C18.0778 10.5342 18.1704 10.8511 18.1704 11.2083H16.7605C16.7605 10.9693 16.6866 10.784 16.5389 10.6524C16.3939 10.5208 16.1965 10.455 15.9468 10.455C15.6943 10.455 15.4943 10.5114 15.3466 10.6242C15.2015 10.7343 15.129 10.8753 15.129 11.0472C15.129 11.1976 15.2096 11.3345 15.3707 11.4581C15.5319 11.5789 15.8152 11.7051 16.2207 11.8367C16.6262 11.9656 16.9592 12.1053 17.2197 12.2557C17.8535 12.6209 18.1704 13.1245 18.1704 13.7663C18.1704 14.2792 17.9771 14.6821 17.5903 14.9748C17.2036 15.2675 16.6732 15.4139 15.9991 15.4139C15.5238 15.4139 15.0928 15.3293 14.7061 15.1601C14.322 14.9882 14.032 14.7546 13.8359 14.4592C13.6426 14.1611 13.5459 13.8187 13.5459 13.4319H14.9639C14.9639 13.7462 15.0444 13.9785 15.2056 14.1288C15.3694 14.2766 15.6339 14.3504 15.9991 14.3504C16.2328 14.3504 16.4167 14.3007 16.551 14.2014C16.688 14.0993 16.7565 13.957 16.7565 13.7744Z" fill="white"/>
</svg>
