<svg width="22" height="22" viewBox="0 0 22 22" fill="none" xmlns="http://www.w3.org/2000/svg">
<path d="M17.4167 21.0833H4.58333C4.07707 21.0833 3.66667 20.6729 3.66667 20.1667V1.83333C3.66667 1.32707 4.07707 0.916667 4.58333 0.916667H13.603C13.8275 0.916667 14.0442 0.999056 14.212 1.14821L14.8085 0.477065L14.212 1.14821L18.0257 4.53816C18.2214 4.71212 18.3333 4.96145 18.3333 5.22329V20.1667C18.3333 20.6729 17.9229 21.0833 17.4167 21.0833Z" stroke="#96AECD" stroke-width="1.83333"/>
<rect y="6.41667" width="22" height="11.9167" rx="1.83333" fill="#96AECD"/>
<path d="M6.61353 14.001H9.41724V15.0886H4.84912V14.3434L7.64478 10.3151H4.83301V9.22339H9.38904V9.94849L6.61353 14.001Z" fill="white"/>
<path d="M11.5684 15.0886H10.1584V9.22339H11.5684V15.0886Z" fill="white"/>
<path d="M13.9652 13.0986V15.0886H12.5513V9.22339H14.8917C15.3402 9.22339 15.7363 9.30664 16.0801 9.47314C16.4265 9.63696 16.6937 9.87195 16.8817 10.1781C17.0724 10.4816 17.1677 10.8267 17.1677 11.2134C17.1677 11.7854 16.9623 12.2433 16.5514 12.587C16.1432 12.9281 15.5819 13.0986 14.8676 13.0986H13.9652ZM13.9652 12.007H14.8917C15.1656 12.007 15.3738 11.9385 15.5161 11.8015C15.6611 11.6646 15.7336 11.4712 15.7336 11.2214C15.7336 10.9475 15.6598 10.7286 15.5121 10.5648C15.3644 10.401 15.163 10.3177 14.9078 10.3151H13.9652V12.007Z" fill="white"/>
</svg>
